<?xml version="1.0" encoding="UTF-8"?>
<svg id="Layer_1" xmlns="http://www.w3.org/2000/svg" version="1.1" viewBox="0 0 100 100">
  <!-- Generator: Adobe Illustrator 29.2.1, SVG Export Plug-In . SVG Version: 2.1.0 Build 116)  -->
  <defs>
    <style>
      .st0 {
        fill: none;
        stroke: #5a6bce;
        stroke-linecap: round;
        stroke-linejoin: round;
        stroke-width: 4px;
      }

      .st1 {
        fill: #443e2f;
      }
    </style>
  </defs>
  <path class="st0" d="M14.1,6.6l75,40.6c2.2,1.2,2.2,4.7,0,5.9L14.1,93.8c-2.2.6-4.7-.9-4.7-3.1V9.4c0-2.2,2.5-3.8,4.7-2.8Z"/>
  <path class="st0" d="M12.5,9.4l56.2,53.1"/>
  <path class="st0" d="M68.8,37.5L12.5,90.6"/>
  <path class="st1" d="M11,90V10l42,40L11,90Z"/>
  <path class="st1" d="M55.9,48L15,9l52,27.9-11.1,11.1Z"/>
  <path class="st1" d="M67,63.1l-11.1-11.1L15,91l52-27.9Z"/>
  <path class="st1" d="M69.3,38l-11.3,12,11.3,12s20.7-8,20.7-12-20.7-12-20.7-12Z"/>
</svg>