<?xml version="1.0" encoding="UTF-8"?>
<svg id="Layer_1" xmlns="http://www.w3.org/2000/svg" version="1.1" viewBox="0 0 21 20">
  <!-- Generator: Adobe Illustrator 29.2.1, SVG Export Plug-In . SVG Version: 2.1.0 Build 116)  -->
  <defs>
    <style>
      .st0 {
        fill: #2b2f4e;
      }
    </style>
  </defs>
  <path class="st0" d="M14.5,9c-1.2,0-1.4,1.2-1.4,1.2h2.6s0-1.2-1.2-1.2Z"/>
  <path class="st0" d="M8.6,10.3h-2.3v2.1h2.2c.3,0,1-.1,1-1,0-1.1-.8-1.1-.8-1.1Z"/>
  <path class="st0" d="M10.7.5C5.5.5,1.2,4.8,1.2,10s4.3,9.5,9.5,9.5,9.5-4.3,9.5-9.5S16,.5,10.7.5ZM12.7,6.3h3.3v1h-3.3v-1ZM11.1,11.5c0,2.4-2.5,2.3-2.5,2.3h-4.1v-7.9h4.1c1.3,0,2.2.7,2.2,2.1s-1.2,1.5-1.2,1.5c1.6,0,1.5,2,1.5,2h0ZM17.2,11.3h-4.1c0,1.5,1.4,1.4,1.4,1.4,1.3,0,1.3-.9,1.3-.9h1.4c0,2.3-2.7,2.1-2.7,2.1-3.3,0-3-3-3-3,0,0,0-3,3-3,3.2,0,2.8,3.4,2.8,3.4h0Z"/>
  <path class="st0" d="M9.1,8.1c0-.8-.6-.8-.6-.8h-2.3v1.8h2.2c.4,0,.7-.1.7-.9Z"/>
</svg>